<svg xmlns="http://www.w3.org/2000/svg" width="35.915" height="35.915" viewBox="0 0 35.915 35.915"><defs><style>.a{fill:#fff;}</style></defs><path class="a" d="M17.644,2.322h.631A15.271,15.271,0,0,1,20.6,2.5a.413.413,0,0,1,.353.311.488.488,0,0,1-.121.525L11.7,12.481a4.42,4.42,0,0,0-1.286,3.153l.056,5.456a4.416,4.416,0,0,0,4.346,4.346l5.456.056h.046A4.365,4.365,0,0,0,23.42,24.2l9.156-9.152a.495.495,0,0,1,.836.237,15.28,15.28,0,0,1,.181,2.354v.627A15.374,15.374,0,0,1,18.271,33.593H9.286a6.965,6.965,0,0,1-6.965-6.965V17.644A15.374,15.374,0,0,1,17.644,2.322m0-2.322A17.7,17.7,0,0,0,0,17.644v8.985a9.314,9.314,0,0,0,9.286,9.286h8.985A17.7,17.7,0,0,0,35.915,18.271v-.627a17.542,17.542,0,0,0-.209-2.716,2.814,2.814,0,0,0-4.769-1.518l-9.156,9.152a2.071,2.071,0,0,1-1.463.608h0l-5.46-.056a2.071,2.071,0,0,1-2.052-2.052l-.056-5.456a2.071,2.071,0,0,1,.608-1.486l9.124-9.142A2.814,2.814,0,0,0,20.964.209,17.533,17.533,0,0,0,18.271,0Z"/></svg>